<svg width="57" height="64" viewBox="0 0 57 64" fill="none" xmlns="http://www.w3.org/2000/svg">
<rect x="0.200012" y="0.399902" width="56.4" height="63.2" fill="white"/>
<path d="M30.5599 21.9933C31.5199 21.9933 32.4799 21.9933 33.4399 21.9933C33.4399 20.5449 33.4399 19.0966 33.4399 17.5166C32.2399 17.5166 31.1599 17.5166 29.9599 17.5166C26.2399 17.7799 24.7999 20.6766 25.2799 25.5483H22.9999V30.1566H25.3999C25.3999 34.2383 25.3999 38.3199 25.3999 42.4016C26.9599 42.4016 28.5199 42.4016 29.9599 42.4016C29.9599 38.3199 29.9599 34.2383 29.9599 30.1566H33.4399V25.5483H29.9599C29.9599 24.2316 29.9599 22.3883 30.5599 21.9933Z" fill="#2A5077"/>
</svg>
