<svg width="56" height="64" viewBox="0 0 56 64" fill="none" xmlns="http://www.w3.org/2000/svg">
<rect x="0.799988" y="0.399902" width="55.2" height="63.2" fill="white"/>
<path d="M31.16 21.6861C33.2 21.0277 34.88 21.9494 35.6 23.1344C36.44 22.8711 37.28 22.4761 38.12 22.2127C38.12 23.2661 37.52 24.1877 37.04 24.4511C37.88 24.7144 38.6 23.7927 38.6 23.7927C38.36 25.1094 37.4 26.0311 36.68 26.4261C36.44 35.1161 32.72 40.9094 24.2 40.6461C23.6 40.6461 24.32 40.6461 23.6 40.6461C23.12 40.6461 18.44 40.1194 17.6 38.2761C20.36 38.5394 22.4 37.7494 23.36 36.8277C22.16 36.4327 20 36.1694 19.64 33.0094C20.12 33.1411 20.36 33.2727 21.2 33.1411C19.76 32.0877 18.08 31.1661 18.2 28.2694C18.56 28.6644 19.52 28.9277 19.88 28.9277C19.04 28.6644 17.48 24.5827 18.8 22.6077C21.08 24.9777 23.36 27.2161 27.68 27.4794C27.8 24.4511 29 22.4761 31.16 21.6861Z" fill="#2A5077"/>
</svg>
