<svg width="30" height="40" viewBox="0 0 30 40" fill="none" xmlns="http://www.w3.org/2000/svg">
<path d="M14.8727 21.5531C14.9092 21.5531 14.9457 21.5531 14.9895 21.5531C15.0041 21.5531 15.0187 21.5531 15.0333 21.5531C15.0552 21.5531 15.0845 21.5531 15.1064 21.5531C17.2463 21.5117 18.9773 20.6585 20.2554 19.0267C23.0673 15.4318 22.5999 9.26901 22.5487 8.68089C22.3662 4.2659 20.5256 2.15366 19.0065 1.16794C17.8744 0.430731 16.5525 0.0331332 15.0772 0H15.026C15.0187 0 15.0041 0 14.9968 0H14.953C14.1423 0 12.5501 0.149099 11.0237 1.13481C9.48989 2.12052 7.62017 4.23276 7.43758 8.68089C7.38645 9.26901 6.91902 15.4318 9.73091 19.0267C11.0017 20.6585 12.7327 21.5117 14.8727 21.5531ZM9.38764 8.88797C9.38764 8.86312 9.39495 8.83827 9.39495 8.82171C9.63597 2.88259 13.3535 2.24477 14.9457 2.24477H14.9749C14.9895 2.24477 15.0114 2.24477 15.0333 2.24477C17.0053 2.29447 20.3577 3.20563 20.5841 8.82171C20.5841 8.84656 20.5841 8.87141 20.5914 8.88797C20.5987 8.94596 21.1099 14.5786 18.7874 17.544C17.8671 18.7202 16.6401 19.3001 15.026 19.3166C15.0114 19.3166 15.0041 19.3166 14.9895 19.3166C14.9749 19.3166 14.9676 19.3166 14.953 19.3166C13.3462 19.3001 12.1119 18.7202 11.1989 17.544C8.88369 14.5952 9.38034 8.93767 9.38764 8.88797Z" fill="white"/>
<path d="M29.998 31.7747C29.998 31.7664 29.998 31.7581 29.998 31.7498C29.998 31.6836 29.9907 31.6173 29.9907 31.5428C29.9468 29.9027 29.8519 26.0675 26.6821 24.8416C26.6602 24.8333 26.631 24.825 26.6091 24.8167C23.3151 23.8642 20.5763 21.7105 20.5471 21.6856C20.1015 21.3295 19.488 21.4537 19.174 21.959C18.8599 22.4643 18.9695 23.1601 19.415 23.5163C19.5392 23.6157 22.446 25.9101 26.0832 26.9704C27.785 27.6579 27.9749 29.7204 28.026 31.609C28.026 31.6836 28.026 31.7498 28.0333 31.8161C28.0406 32.5616 27.9968 33.713 27.8799 34.3756C26.6967 35.1377 22.0589 37.7718 15.0036 37.7718C7.97754 37.7718 3.31053 35.1294 2.12004 34.3674C2.00318 33.7047 1.95205 32.5533 1.96666 31.8078C1.96666 31.7416 1.97397 31.6753 1.97397 31.6007C2.02509 29.7122 2.21498 27.6496 3.91673 26.9621C7.55393 25.9018 10.4608 23.5991 10.5849 23.508C11.0305 23.1518 11.14 22.456 10.826 21.9507C10.5119 21.4454 9.89839 21.3212 9.45287 21.6774C9.42366 21.7022 6.69941 23.8559 3.39087 24.8084C3.36165 24.8167 3.33974 24.825 3.31783 24.8333C0.14806 26.0675 0.0531133 29.9027 0.00929157 31.5345C0.00929157 31.609 0.00929141 31.6753 0.00198779 31.7416C0.00198779 31.7498 0.00198779 31.7581 0.00198779 31.7664C-0.00531583 32.1971 -0.0126193 34.4088 0.374473 35.5187C0.447509 35.7341 0.578974 35.9163 0.754261 36.0406C0.97337 36.2063 6.22467 40 15.0109 40C23.7972 40 29.0485 36.198 29.2676 36.0406C29.4356 35.9163 29.5743 35.7341 29.6474 35.5187C30.0126 34.4171 30.0053 32.2054 29.998 31.7747Z" fill="white"/>
</svg>
